<svg id="Layer_1" data-name="Layer 1" xmlns="http://www.w3.org/2000/svg" xmlns:xlink="http://www.w3.org/1999/xlink" viewBox="0 0 1071.3 1071.3"><defs><style>.cls-1{fill:url(#linear-gradient);}.cls-2{fill:url(#linear-gradient-2);}.cls-3{fill:url(#linear-gradient-3);}.cls-4{fill:#01ca6e;}.cls-5{fill:url(#linear-gradient-4);}.cls-6{fill:#242528;}</style><linearGradient id="linear-gradient" x1="5.12" y1="539.63" x2="1076.2" y2="539.63" gradientTransform="translate(-139.87 192.65) rotate(-17.93)" gradientUnits="userSpaceOnUse"><stop offset="0" stop-color="#01a33d"/><stop offset="0.26" stop-color="#01ca6e"/><stop offset="0.44" stop-color="#12d57b"/><stop offset="0.8" stop-color="#31e891"/><stop offset="1" stop-color="#3cef9a"/></linearGradient><linearGradient id="linear-gradient-2" x1="-577.91" y1="4731.64" x2="159.09" y2="5468.63" gradientTransform="translate(-3151.18 -2991.58) rotate(-48.57)" gradientUnits="userSpaceOnUse"><stop offset="0" stop-color="#01ca6e"/><stop offset="0.26" stop-color="#01ca6e"/><stop offset="0.44" stop-color="#12d57b"/><stop offset="0.8" stop-color="#31e891"/><stop offset="1" stop-color="#3cef9a"/></linearGradient><linearGradient id="linear-gradient-3" x1="-7493.76" y1="-1278.88" x2="-6610.64" y2="-1278.88" gradientTransform="translate(-4320.91 5804.61) rotate(122.44)" xlink:href="#linear-gradient"/><linearGradient id="linear-gradient-4" x1="464.65" y1="64.05" x2="91.91" y2="501" gradientTransform="matrix(1.09, 0, 0, 1, 408.2, 2.18)" gradientUnits="userSpaceOnUse"><stop offset="0" stop-color="#333"/><stop offset="0.26" stop-color="#333"/><stop offset="0.29" stop-color="#3e3e3e"/><stop offset="0.39" stop-color="#6f6f6f"/><stop offset="0.47" stop-color="#8e8e8e"/><stop offset="0.51" stop-color="#999"/><stop offset="0.55" stop-color="#929292"/><stop offset="0.6" stop-color="#7e7e7e"/><stop offset="0.67" stop-color="#5d5d5d"/><stop offset="0.73" stop-color="#333"/><stop offset="1" stop-color="#333"/></linearGradient></defs><title>PlayChip</title><path class="cls-1" d="M292.65,1014.28C30.49,877.28-71,553.75,66,291.6S526.54-72,788.7,65s363.59,460.49,226.6,722.64S554.77,1151.25,292.65,1014.28Z" transform="translate(-5.01 -3.98)"/><path class="cls-2" d="M934.83,887.46c-192.12,217.71-524.31,238.45-742,46.33s-238.42-524.28-46.31-742,524.27-238.44,742-46.33S1126.92,669.79,934.83,887.46Z" transform="translate(-5.01 -3.98)"/><path class="cls-3" d="M167.12,302.25C298.24,95.95,571.75,35,778.05,166.13S1045.28,570.74,914.16,777s-404.6,267.21-610.89,136.1S36,508.54,167.12,302.25Z" transform="translate(-5.01 -3.98)"/><path class="cls-4" d="M630.37,953.51c-228.61,49.54-454-95.59-503.58-324.2s95.6-454,324.2-503.56,454,95.6,503.55,324.18S858.95,904,630.37,953.51Z" transform="translate(-5.01 -3.98)"/><path class="cls-5" d="M562.11,241.71c-121.31-.2-202.26,89.05-203.21,199.61h0l-.08,46.75-.15,94.79-.31,188.29v6.49c0,.33,0,.65,0,1s0,.65,0,1c-.06,34.06,30.47,61.73,68.19,61.79,37.47.06,67.93-27.16,68.37-60.92h0v-2.6l.32-194.78.15-94.79,0-27.27,0-11.69v-7.79c.07-42.31,37.7-76.55,84.06-76.48s83.88,34.44,83.81,76.75-64.51,88.47-110.87,88.4c-5.45,0-1.13-11.36-6.29-12.27L519.84,645.5c14.14,2.62,32.83,3.1,47.81,3.13,121.78.2,198.06-94.12,198.24-205.28S683.9,241.91,562.11,241.71Z" transform="translate(-5.01 -3.98)"/><path class="cls-6" d="M560.68,251.59c-107.18-.18-194.28,86.23-195.13,193.25h0l-.07,45.25-.15,91.76L365,764.11v6.28c0,.32,0,.63,0,.94s0,.63,0,.94c-.05,33,26.91,59.75,60.24,59.8,33.11.05,60-26.3,60.41-59h0v-2.51L486,582.05l.15-91.76,0-26.4,0-11.31V445a74.18,74.18,0,1,1,60,72.91L521.39,637.34a195.72,195.72,0,0,0,38.65,3.9c107.6.18,195-86.91,195.15-194.51S668.28,251.77,560.68,251.59Z" transform="translate(-5.01 -3.98)"/></svg>